<?xml version="1.0" standalone="no"?><!DOCTYPE svg PUBLIC "-//W3C//DTD SVG 1.1//EN" "http://www.w3.org/Graphics/SVG/1.1/DTD/svg11.dtd"><svg t="1585038838453" class="icon" viewBox="0 0 1102 1024" version="1.1" xmlns="http://www.w3.org/2000/svg" p-id="5962" xmlns:xlink="http://www.w3.org/1999/xlink" width="215.234375" height="200"><defs><style type="text/css"></style></defs><path d="M975.556923 1024H127.212308C59.431385 1024 0 971.382154 0 911.202462V112.797538C0 52.617846 59.392 0 127.212308 0h848.344615C1043.337846 0 1102.769231 52.617846 1102.769231 112.797538v798.404924C1102.769231 971.382154 1043.377231 1024 975.556923 1024zM413.538462 905.846154c23.630769 0 59.076923-27.569231 59.076923-68.923077v-413.538462C472.615385 382.030769 448.984615 354.461538 413.538462 354.461538S354.461538 382.030769 354.461538 423.384615v413.538462C354.461538 878.276923 378.092308 905.846154 413.538462 905.846154z m275.692307 0c35.446154 0 59.076923-25.206154 59.076923-63.015385v-189.046154c0-37.809231-23.630769-63.015385-59.076923-63.015384s-59.076923 25.206154-59.076923 63.015384v189.046154c0 37.809231 23.630769 63.015385 59.076923 63.015385z m236.307693 0c35.446154 0 59.076923-26.269538 59.076923-65.654154v-65.614769c0-39.384615-23.630769-65.654154-59.076923-65.654154s-59.076923 26.269538-59.076924 65.654154v65.614769c0 39.384615 23.630769 65.654154 59.076924 65.654154z m-748.307693 0c23.630769 0 59.076923-27.175385 59.076923-68.017231V225.555692C236.307692 184.753231 212.676923 157.538462 177.230769 157.538462S118.153846 184.713846 118.153846 225.555692v612.273231C118.153846 878.631385 141.784615 905.846154 177.230769 905.846154z" p-id="5963"></path></svg>